<svg height="40" viewBox="0 0 64 64" width="40" fill="#5578ff"  xmlns="http://www.w3.org/2000/svg"><g id="Passenger-Taxi-App-Smartphone-Technology"><path d="m23.85 26.51-4.85-2.16v-1.43a8.06 8.06 0 0 0 3.74-4.92h.26a2.992 2.992 0 0 0 .38-5.96l1.33-1.33a1.033 1.033 0 0 0 .29-.71v-3a5 5 0 0 0 -5-5h-16a1 1 0 0 0 -.89 1.45l1.77 3.55-.77 1.55a1 1 0 0 0 .18 1.16l2.33 2.33a2.992 2.992 0 0 0 .38 5.96h.26a8.06 8.06 0 0 0 3.74 4.92v1.43l-4.85 2.16a7 7 0 0 0 -4.15 6.39v15.1a4 4 0 0 0 4 4v9a1 1 0 0 0 1 1h16a1 1 0 0 0 1-1v-9a4 4 0 0 0 4-4v-15.1a7 7 0 0 0 -4.15-6.39zm.15-11.51a1 1 0 0 1 -1 1v-2a1 1 0 0 1 1 1zm-17 1a1 1 0 0 1 0-2zm-.78-7.2.67-1.35a.956.956 0 0 0 0-.9l-1.27-2.55h14.38a3.009 3.009 0 0 1 3 3v2.59l-1.41 1.41h-.15a1 1 0 0 1 -.95-.68l-.54-1.64a.975.975 0 0 0 -.65-.63 1.047 1.047 0 0 0 -.3-.05 1.029 1.029 0 0 0 -.6.2l-1.87 1.4a7.042 7.042 0 0 1 -4.2 1.4h-3.92zm2.78 7.2v-3h3.33a9.032 9.032 0 0 0 5.4-1.8l.76-.57.11.32a2.975 2.975 0 0 0 2.4 2.01v3.04a6 6 0 0 1 -12 0zm4 8.28v-.54a7.822 7.822 0 0 0 4 0v.54l-2 .67zm.15 2.16-1.14 1.13-1-1.04 1.04-.46zm4.8-.37 1.04.46-1 1.04-1.14-1.13zm-11.95 23.93a2.006 2.006 0 0 1 -2-2h2zm16 10h-6v-8h-2v8h-6v-11h14zm2-10v-2h2a2.006 2.006 0 0 1 -2 2zm2-4h-2v-14h-2v15h-14v-15h-2v14h-2v-13.1a5.009 5.009 0 0 1 2.97-4.57l2.1-.93 2.21 2.29a.97.97 0 0 0 .71.31h.01a1.052 1.052 0 0 0 .71-.29l2.29-2.3 2.29 2.3a1.052 1.052 0 0 0 .71.29h.01a.97.97 0 0 0 .71-.31l2.21-2.29 2.1.93a5.009 5.009 0 0 1 2.97 4.57z"/><path d="m11 14h2v2h-2z"/><path d="m17 14h2v2h-2z"/><path d="m43 52h6v2h-6z"/><path d="m62 47a3.009 3.009 0 0 0 -3-3 2.949 2.949 0 0 0 -1.99.78l-1.07-2.13-.78-3.14a1.992 1.992 0 0 0 -1.94-1.51h-2.22v-3a1 1 0 0 0 -1-1h-8a1 1 0 0 0 -1 1v3h-2.22a1.992 1.992 0 0 0 -1.94 1.51l-.78 3.14-1.07 2.13a2.949 2.949 0 0 0 -1.99-.78 3 3 0 0 0 -1.6 5.53 2.942 2.942 0 0 0 -.4 1.47v9a2.006 2.006 0 0 0 2 2h4a2.006 2.006 0 0 0 2-2v-2h14v2a2.006 2.006 0 0 0 2 2h4a2.006 2.006 0 0 0 2-2v-9a2.942 2.942 0 0 0 -.4-1.47 2.983 2.983 0 0 0 1.4-2.53zm-19-11h6v2h-6zm-4.22 4h14.44l.5 2h-15.44zm-1.16 4h16.76l2 4h-20.76zm-5.62 3a.992.992 0 0 1 1.97-.17l-.53 1.05a.933.933 0 0 1 -.44.12 1 1 0 0 1 -1-1zm5 13h-4v-2.18a3 3 0 0 0 1 .18h3zm22 0h-4v-2h3a3 3 0 0 0 1-.18zm0-5a1 1 0 0 1 -1 1h-24a1 1 0 0 1 -1-1v-4a1 1 0 0 1 1-1h24a1 1 0 0 1 1 1zm0-7a.933.933 0 0 1 -.44-.12l-.53-1.05a.993.993 0 1 1 .97 1.17z"/><circle cx="55" cy="53" r="2"/><circle cx="37" cy="53" r="2"/><path d="m51 2h-10a5 5 0 0 0 -5 5v20a5 5 0 0 0 5 5h10a5 5 0 0 0 5-5v-20a5 5 0 0 0 -5-5zm3 25a3.009 3.009 0 0 1 -3 3h-10a3.009 3.009 0 0 1 -3-3v-20a3.009 3.009 0 0 1 3-3h10a3.009 3.009 0 0 1 3 3z"/><path d="m44 6h4v2h-4z"/><path d="m40 6h2v2h-2z"/><path d="m44 26h4v2h-4z"/><path d="m45 20h2v2h-2z"/><path d="m42.465 17.464 1.414 1.414a3.074 3.074 0 0 1 4.242 0l1.414-1.414a5 5 0 0 0 -7.07 0z"/><path d="m50.95 16.05 1.414-1.414a9.01 9.01 0 0 0 -12.728 0l1.414 1.414a7.011 7.011 0 0 1 9.9 0z"/></g></svg>