<svg height="40" fill="#e361ff" viewBox="0 0 496 496.816" width="40" xmlns="http://www.w3.org/2000/svg"><path d="m216.40625 168c0 4.417969-3.578125 8-8 8-4.417969 0-8-3.582031-8-8s3.582031-8 8-8c4.421875 0 8 3.582031 8 8zm0 0"/><path d="m136.40625 168c0 4.417969-3.578125 8-8 8-4.417969 0-8-3.582031-8-8s3.582031-8 8-8c4.421875 0 8 3.582031 8 8zm0 0"/><path d="m168.40625 248c17.648438 0 32-14.351562 32-32h-16c0 8.824219-7.175781 16-16 16-8.820312 0-16-7.175781-16-16h-16c0 17.648438 14.355469 32 32 32zm0 0"/><path d="m493.734375 381.511719c-8.839844-30.9375-13.328125-62.945313-13.328125-95.128907v-22.382812h-27.308594l-7.035156 7.03125c-5.703125 5.703125-13.589844 8.96875-21.65625 8.96875-8.0625 0-15.949219-3.265625-21.652344-8.96875l-18.347656-18.34375-18.34375 18.34375c-5.703125 5.703125-13.589844 8.96875-21.65625 8.96875-8.0625 0-15.949219-3.265625-21.652344-8.96875l-7.035156-7.03125h-27.3125v22.382812c0 3.136719-.238281 6.265626-.328125 9.394532l-19.207031-3.839844c7.128906-7.257812 11.535156-17.097656 11.535156-27.9375v-1.015625c13.792969-3.550781 24-16.105469 24-30.984375v-2.335938c0-4.9375-1.167969-9.886718-3.375-14.3125-13.488281-26.984374-20.625-57.183593-20.625-87.351562v-39.015625c0-22.328125-14.621094-41.800781-35.832031-48.136719l-10.34375-10.335937c-19.671875-19.679688-45.832031-30.511719-73.65625-30.511719-57.4375 0-104.167969 46.726562-104.167969 104.167969v23.832031c0 30.167969-7.132812 60.367188-20.621094 87.359375-2.210937 4.417969-3.378906 9.367187-3.378906 14.304687v2.335938c0 14.878906 10.210938 27.433594 24 30.984375v1.015625c0 10.753906 4.441406 20.625 11.59375 27.921875l-35.433594 7.085937c-18.636718 3.726563-32.160156 20.222657-32.160156 39.222657v109.769531h290.875c6.039062 6.472656 13.230469 11.9375 21.535156 15.769531l71.589844 33.046875 71.59375-33.046875c24.550781-11.320312 40.40625-36.113281 40.40625-63.152343 0-6.457032-.894531-12.882813-2.671875-19.105469zm-207.015625-159.007813c1.105469 2.214844 1.6875 4.6875 1.6875 7.160156v2.335938c0 8.824219-7.175781 16-16 16h-8v16c0 11.273438-7.773438 20.839844-18.628906 23.320312l-29.371094-5.871093v-17.449219h-.207031c15.59375-11.671875 26.824219-28.839844 30.695312-48.65625 12.371094-2.039062 22.730469-9.75 28.511719-20.390625 3.144531 9.429687 6.875 18.671875 11.3125 27.550781zm-166.3125 75.257813 5.914062-1.1875 30.671876 24.539062c-.542969.734375-1.121094 1.453125-1.632813 2.207031-3.457031 3.175782-7.839844 5.199219-12.597656 5.535157-6.027344.464843-11.953125-1.777344-16.234375-6.054688-3.953125-3.945312-6.121094-9.183593-6.121094-14.761719zm-32-99.234375c-9.285156-3.3125-16-12.113282-16-22.527344s6.714844-19.214844 16-22.527344zm16-46.527344h16c24.875 0 49.554688-7.433594 70.328125-21.054688 10.609375 12.101563 25.53125 19.535157 41.671875 20.796876v48.257812c0 35.289062-28.710938 64-64 64-35.285156 0-64-28.710938-64-64zm144 1.472656c9.289062 3.3125 16 12.113282 16 22.527344s-6.710938 19.214844-16 22.527344zm-80 126.527344c11.378906 0 22.195312-2.425781 32-6.726562v10.878906l-32 25.601562-32-25.601562v-10.878906c9.808594 4.300781 20.625 6.726562 32 6.726562zm11.417969 41.113281 30.679687-24.546875 5.902344 1.1875v10.277344c0 5.578125-2.167969 10.824219-6.117188 14.769531-4.28125 4.269531-10.242187 6.503907-16.234374 6.054688-4.757813-.335938-9.152344-2.359375-12.605469-5.535157-.511719-.753906-1.082031-1.472656-1.625-2.207031zm-107.417969-216.945312c0-48.617188 39.546875-88.167969 88.167969-88.167969 23.554687 0 45.699219 9.167969 62.347656 25.824219l13.40625 13.398437 2.152344.539063c15.261719 3.824219 25.925781 17.476562 25.925781 33.222656v39.015625c0 5.617188.3125 11.230469.769531 16.839844-4.839843-3.855469-10.480469-6.742188-16.769531-8.023438v-24.816406h-16v23.703125c-13.496094-1.421875-25.71875-8.695313-33.34375-20.136719l-4.6875-7.03125-6.765625 5.066406c-19.265625 14.4375-43.128906 22.398438-67.203125 22.398438h-16v-24h-16v24.808594c-6.285156 1.28125-11.917969 4.167968-16.765625 8.023437.457031-5.601562.765625-11.214843.765625-16.832031zm0 159.832031v-16h-8c-8.820312 0-16-7.175781-16-16v-2.335938c0-2.472656.585938-4.945312 1.691406-7.152343 4.4375-8.886719 8.167969-18.121094 11.308594-27.558594 5.792969 10.640625 16.144531 18.351563 28.515625 20.390625 3.871094 19.816406 15.101563 36.984375 30.695313 48.65625h-.210938v17.441406l-29.460938 5.894532c-10.769531-2.519532-18.539062-12.199219-18.539062-23.335938zm-56 74.230469c0-11.40625 8.121094-21.300781 19.296875-23.535157l68.703125-13.734374v7.078124c0 9.847657 3.832031 19.113282 10.808594 26.082032 6.9375 6.933594 16.320312 10.800781 26.066406 10.800781.863281 0 1.742188-.035156 2.613281-.097656.769531-.054688 1.488281-.304688 2.242188-.398438-1.097657 4.636719-1.730469 9.390625-1.730469 14.199219v17.375h16v-17.375c0-9.082031 2.738281-18.015625 7.671875-25.570312.113281-.117188.21875-.230469.328125-.351563.113281.121094.226562.242187.335938.359375 4.929687 7.5625 7.664062 16.488281 7.664062 25.5625v17.375h16v-17.375c0-4.808594-.628906-9.570312-1.726562-14.210938.761718.105469 1.472656.355469 2.242187.402344.871094.0625 1.75.09375 2.613281.09375 9.746094 0 19.128906-3.855468 26.066406-10.796875 6.972657-6.960937 10.804688-16.226562 10.804688-26.074219v-7.078124l55.007812 11c-1.644531 22.230468-5.492187 44.238281-11.390624 65.765624-1.574219-3.984374-3.421876-7.863281-5.832032-11.480468-3.785156-5.671875-5.785156-12.269532-5.785156-19.085938v-11.160156h-16v11.160156c0 9.992188 2.929688 19.664063 8.472656 27.96875 4.929688 7.382813 7.527344 15.992188 7.527344 24.871094s-2.597656 17.488281-7.527344 24.871094l-4.75 7.128906h-167.441406l-4.75-7.128906c-4.929688-7.382813-7.53125-15.992188-7.53125-24.871094s2.601562-17.488281 7.53125-24.871094c5.542969-8.304687 8.46875-17.976562 8.46875-27.96875v-11.160156h-16v11.160156c0 6.824219-2 13.425782-5.78125 19.097656-6.6875 10.015626-10.21875 21.6875-10.21875 33.742188 0 11.375 3.25 22.367188 9.234375 32h-49.234375zm254.769531 93.769531c1.929688-3.105469 3.511719-6.351562 4.832031-9.710938 1.105469 3.351563 2.480469 6.582032 4.070313 9.710938zm178.121094 17.230469-64.890625 29.953125-64.886719-29.953125c-18.902343-8.71875-31.113281-27.789063-31.113281-48.613281 0-4.976563.699219-9.921876 2.066406-14.714844 9.246094-32.367188 13.933594-65.847656 13.933594-99.519532v-6.382812h4.691406l2.34375 2.34375c8.679688 8.679688 20.695313 13.65625 32.964844 13.65625 12.273438 0 24.289062-4.976562 32.96875-13.65625l7.03125-7.03125 7.035156 7.03125c8.679688 8.679688 20.695313 13.65625 32.964844 13.65625 12.273438 0 24.289062-4.976562 32.96875-13.65625l2.34375-2.34375h4.6875v6.382812c0 33.671876 4.691406 67.160157 13.9375 99.519532 1.367188 4.792968 2.0625 9.738281 2.0625 14.714844 0 20.824218-12.207031 39.894531-31.109375 48.613281zm0 0"/><path d="m453.910156 350.640625-15.765625 2.71875c2.390625 13.886719 5.566407 27.800781 9.441407 41.34375.542968 1.921875.820312 3.914063.820312 5.914063 0 8.375-4.910156 16.054687-12.511719 19.558593l-22.832031 10.535157 6.707031 14.527343 22.832031-10.535156c13.246094-6.109375 21.804688-19.496094 21.804688-34.085937 0-3.488282-.484375-6.953126-1.4375-10.304688-3.722656-13-6.761719-26.34375-9.058594-39.671875zm0 0"/><path d="m451.542969 334.96875c-.757813-5.898438-1.390625-11.808594-1.863281-17.738281l-15.953126 1.296875c.503907 6.175781 1.160157 12.351562 1.960938 18.496094zm0 0"/><path d="m418.753906 338.34375-66.347656 66.34375-26.34375-26.34375-11.308594 11.3125 37.652344 37.65625 77.65625-77.65625zm0 0"/></svg>