<svg id="Layer_5" enable-background="new 0 0 64 64" height="40" fill="#ffa76e" viewBox="0 0 64 64" width="40" xmlns="http://www.w3.org/2000/svg"><g><path d="m34 22.764c-.381.762-1.147 1.236-2 1.236s-1.619-.474-2-1.236l-.105-.211-1.789.895.105.211c.722 1.444 2.174 2.341 3.789 2.341s3.067-.897 3.789-2.342l.105-.211-1.789-.895z"/><path d="m32.707 13.293c-1.101-1.101-1.707-2.564-1.707-4.122v-1.171h-2v1.171c0 2.091.814 4.057 2.293 5.536z"/><path d="m50.305 49c.443-.936.695-1.961.695-3 0-7.422-5.267-13.937-12.524-15.492l-1.796-.385-.278-.556c2.376-.872 4.148-2.993 4.519-5.567h.079c2.206 0 4-1.794 4-4 0-.766-.227-1.475-.602-2.083.392-1.151.602-2.346.602-3.566v-2.272c0-6.109-4.97-11.079-11.079-11.079h-2.811c-2.26 0-4.419 1.08-5.775 2.888l-.915 1.22c-3.164.814-5.42 3.694-5.42 6.991 0 1.85.307 3.669.886 5.421-.546.684-.886 1.539-.886 2.48 0 2.206 1.794 4 4 4h.072c.102.714.32 1.403.634 2.051l-1.828 1.828c-.566.566-.878 1.32-.878 2.121 0 .454.11.888.3 1.286l-.149.149c-2.139 2.139-3.739 4.665-4.778 7.411l-1.307-8.498 1.056-1.056c.566-.565.878-1.319.878-2.121v-.171c0-1.338-.881-2.475-2.093-2.86-.394-1.794-1.996-3.14-3.907-3.14-2.206 0-4 1.794-4 4v17c0 2.192 1.047 4.285 2.8 5.6 1.204.903 2.695 1.4 4.2 1.4.337 0 .67-.033 1-.081v.081h-1-13v14h62v-14zm-1.305-3c0 1.075-.355 2.141-1 3-.939 1.252-2.434 2-4 2h-5v-4h3c1.654 0 3-1.346 3-3v-3h-2v3c0 .551-.449 1-1 1h-3.586l-1.121-1.121c-.091-.091-.193-.164-.293-.241v-4.638h-.78l1.329-6.645.508.109c6.341 1.358 10.943 7.051 10.943 13.536zm-17-9.056 1.234 2.056h-2.468zm3.372-3.902-.845 4.225-1.268-2.113zm-.201 11.958c.267 0 .519.104.708.293l1.121 1.121v4.586h-4c-1.103 0-2-.897-2-2s.897-2 2-2h1v-1c0-.551.449-1 1-1zm-5.698-7.733-.845-4.225 2.113 2.113zm5.527 3.733v2c-1.338 0-2.475.881-2.86 2.093-1.794.394-3.14 1.996-3.14 3.907 0 2.206 1.794 4 4 4h2v2h-10v-14zm-.217-10.197-2.783 2.783-3.692-3.692c.028-.034.058-.068.085-.103.525.124 1.059.209 1.607.209h4c.126 0 .248-.012.372-.019zm-.783-2.803h-4c-.343 0-.68-.043-1.011-.112-.028-.759-.328-1.47-.868-2.01-.7-.701-1.722-.965-2.668-.8-.297-.648-.453-1.354-.453-2.078v-1.556c.591.344 1.268.556 2 .556 1.858 0 3.411-1.28 3.858-3h2.284c.447 1.72 2 3 3.858 3 .732 0 1.409-.212 2-.556v1.556c0 2.757-2.243 5-5 5zm-9-10c0-1.103.897-2 2-2s2 .897 2 2-.897 2-2 2-2-.897-2-2zm14 0c0 1.103-.897 2-2 2s-2-.897-2-2 .897-2 2-2 2 .897 2 2zm2 4v-4c1.103 0 2 .897 2 2s-.897 2-2 2zm-15.804-15.02.375-.075 1.363-1.818c.981-1.307 2.542-2.087 4.176-2.087h2.811c5.006 0 9.079 4.073 9.079 9.079v2.272c0 .702-.09 1.393-.249 2.07-.531-.261-1.12-.421-1.751-.421v-.559c0-1.293-.824-2.437-2.052-2.846l-.837-.279c-1.861-.62-3.111-2.355-3.111-4.316h-2c0 2.64 1.585 4.977 3.979 6.002-1.849.01-3.392 1.284-3.837 2.998h-2.284c-.447-1.72-2-3-3.858-3-.732 0-1.409.212-2 .556v-.556c0-1.103.897-2 2-2v-2c-2.206 0-4 1.794-4 4v2c-.499 0-.971.103-1.412.27-.385-1.356-.588-2.753-.588-4.171 0-2.479 1.765-4.632 4.196-5.119zm-4.196 13.02c0-1.103.897-2 2-2v4c-1.103 0-2-.897-2-2zm2.293 9.293 2-2c.192-.191.436-.293.707-.293s.515.102.707.293c.191.192.293.436.293.707s-.102.515-.293.707l-2 2c-.384.383-1.03.383-1.414 0-.191-.192-.293-.436-.293-.707s.102-.515.293-.707zm-.728 3.556.149-.149c.398.19.832.3 1.286.3.801 0 1.555-.312 2.121-.879l.236-.236 1.423 7.115h-4.78v10h-2v-7h-2v1.667l-1 1.333c-.281.375-.617.698-.984.976.078-4.959 2.034-9.611 5.549-13.127zm-11.565-9.849c1.103 0 2 .897 2 2v1h1c.551 0 1 .449 1 1v.171c0 .267-.104.519-.293.708l-1.121 1.121h-4.586v-4c0-1.103.897-2 2-2zm3 24c-1.075 0-2.141-.355-3-1-1.252-.939-2-2.434-2-4v-11h4.142l1.994 12.963c-.083.766-.136 1.539-.136 2.321v.607c-.327.068-.661.109-1 .109zm3 1.313c.741-.352 1.42-.831 2-1.422v2.109h-2zm44 12.687h-58v-10h12v2c-2.757 0-5 2.243-5 5v1h12v-1c0-2.757-2.243-5-5-5v-2h6v6h14v-4h7c1.831 0 3.586-.738 4.883-2h12.117zm-44-6c1.304 0 2.416.836 2.829 2h-7.657c.413-1.164 1.525-2 2.829-2z"/></g></svg>