<svg height="40" fill="#47aeff" viewBox="0 0 496 496" width="40" xmlns="http://www.w3.org/2000/svg"><path d="m471.59375 128c-4.113281-53.609375-48.953125-96-103.59375-96h-33.472656c.898437-2.511719 1.472656-5.183594 1.472656-8 0-13.230469-10.769531-24-24-24s-24 10.769531-24 24c0 2.816406.574219 5.488281 1.472656 8h-49.472656c-54.640625 0-99.480469 42.390625-103.59375 96h-24.40625v16h64.542969c-.335938 1.464844-.542969 2.96875-.542969 4.527344 0 3.730468 1.015625 7.382812 2.929688 10.5625l13.40625 22.351562c5.015624 8.367188 7.664062 17.933594 7.664062 27.671875 0 14.550781 4.710938 28.605469 12.960938 40.277344l-14.664063 19.5625-22.328125 29.773437-17.242188-14.101562-55.46875 71.320312-103.257812-103.257812v198.625l44.6875 44.6875h119.367188l94.882812-129.390625-17.289062-14.144531 20.566406-27.425782 37.945312-45.535156c3.152344-3.777344 6.71875-7.175781 10.609375-10.121094l85.503907-64.542968c6.878906-5.191406 11.984374-12.625 14.367187-20.9375l11.398437-39.902344h73.960938v-16zm-167.59375-104c0-4.414062 3.585938-8 8-8s8 3.585938 8 8-3.585938 8-8 8-8-3.585938-8-8zm-148.054688 456h-104.632812l-35.3125-35.3125v-153.375l80 80v44.6875h16v-45.257812l49.28125-63.359376 75.78125 62.007813zm73.3125-137.671875-40.90625-33.464844 13.359376-17.808593 42.976562 30.699218zm71.878907-85.710937c-4.863281 3.671874-9.320313 7.917968-13.257813 12.628906l-33.269531 39.921875-43.296875-30.929688 12.550781-16.734375c1.328125 1.160156 2.625 2.359375 4.039063 3.425782l7.289062 5.46875 9.609375-12.796876-7.296875-5.472656c-13.464844-10.097656-21.503906-26.183594-21.503906-43.015625 0-12.632812-3.441406-25.050781-9.945312-35.898437l-13.414063-22.359375c-.425781-.703125-.640625-1.503907-.640625-2.320313 0-2.503906 2.03125-4.535156 4.527344-4.535156h5.058594c7.15625 0 13.886718 2.792969 18.949218 7.847656 2.921875 2.921875 5.160156 6.542969 6.472656 10.472656l18.183594 54.558594c3.007813 9.042969 11.441406 15.121094 20.96875 15.121094 5.894532 0 11.457032-2.296875 15.625-6.480469l29.335938-29.335937 14.917968-52.183594h17.082032c-.960938 9.761719-2.707032 19.433594-5.410156 28.878906l-9.199219 32.304688-16.097657 42.914062zm-5.535157-112.617188h13.789063l-12.519531 43.816406-15.160156 15.160156 1.03125-2.410156c7.738281-18.054687 11.914062-37.070312 12.859374-56.566406zm-27.554687 50.257812-7.582031 17.695313c-.015625-.050781-.074219-.074219-.089844-.128906l-18.183594-54.558594c-1.597656-4.808594-4.085937-9.3125-7.253906-13.265625h44.671875c-.9375 17.320312-4.6875 34.207031-11.5625 50.257812zm91.152344-50.257812h14.554687l-2.304687 9.199219c-1.546875 6.214843-5.433594 11.464843-10.929688 14.761719l-5.992187 3.589843c2.265625-9.054687 3.839844-18.253906 4.671875-27.550781zm36.058593 35.503906c-1.433593 4.984375-4.496093 9.457032-8.625 12.566406l-50.402343 38.050782 7.457031-19.921875 4.648438-16.269531 20.40625-12.242188c9.167968-5.503906 15.632812-14.230469 18.21875-24.589844l3.277343-13.097656h15.152344zm-35.257812-51.503906h-207.640625c4.054687-44.792969 41.808594-80 87.640625-80h128c45.832031 0 83.585938 35.207031 87.640625 80zm0 0"/><path d="m368 64h-8v16h8c19.886719 0 38.480469 10.734375 48.496094 28.015625l13.839844-8.03125c-12.871094-22.191406-36.761719-35.984375-62.335938-35.984375zm0 0"/><path d="m328 64h16v16h-16zm0 0"/><path d="m352 456h64c22.054688 0 40-17.945312 40-40v-6.238281c4.871094-4.394531 8-10.699219 8-17.761719 0-7.113281-3.167969-13.441406-8.097656-17.832031-.980469-38.855469-32.824219-70.167969-71.902344-70.167969s-70.921875 31.3125-71.902344 70.167969c-4.929687 4.390625-8.097656 10.71875-8.097656 17.832031 0 7.0625 3.128906 13.359375 8 17.761719v6.238281c0 22.054688 17.945312 40 40 40zm64-16h-64c-13.230469 0-24-10.769531-24-24h112c0 13.230469-10.769531 24-24 24zm-88-56h112c4.414062 0 8 3.585938 8 8s-3.585938 8-8 8h-112c-4.414062 0-8-3.585938-8-8s3.585938-8 8-8zm56-64c28.152344 0 51.457031 20.910156 55.359375 48h-110.71875c3.902344-27.089844 27.207031-48 55.359375-48zm0 0"/><path d="m400 344h16v16h-16zm0 0"/><path d="m360 336h16v16h-16zm0 0"/><path d="m384 480c-52.9375 0-96-43.0625-96-96 0-22.832031 8.214844-45 23.152344-62.398438l-12.144532-10.425781c-17.414062 20.3125-27.007812 46.167969-27.007812 72.824219 0 61.761719 50.238281 112 112 112 26.65625 0 52.511719-9.59375 72.824219-27.007812l-10.425781-12.144532c-17.398438 14.9375-39.566407 23.152344-62.398438 23.152344zm0 0"/><path d="m384 272c-26.65625 0-52.511719 9.59375-72.824219 27.007812l10.425781 12.144532c17.398438-14.9375 39.566407-23.152344 62.398438-23.152344 52.9375 0 96 43.0625 96 96 0 22.832031-8.214844 45-23.152344 62.398438l12.144532 10.425781c17.414062-20.3125 27.007812-46.167969 27.007812-72.824219 0-61.761719-50.238281-112-112-112zm0 0"/><path d="m96 0h80v16h-80zm0 0"/><path d="m192 0h16v16h-16zm0 0"/><path d="m48 32h80v16h-80zm0 0"/><path d="m144 32h16v16h-16zm0 0"/><path d="m0 64h80v16h-80zm0 0"/><path d="m96 64h16v16h-16zm0 0"/></svg>